<?xml version='1.0' encoding='UTF-8'?>
<svg width="74mm" height="74mm" version="1.1" viewBox="0 0 74 74" xmlns="http://www.w3.org/2000/svg"><path d="M8,8H10V10H8zM10,8H12V10H10zM12,8H14V10H12zM14,8H16V10H14zM16,8H18V10H16zM18,8H20V10H18zM20,8H22V10H20zM26,8H28V10H26zM28,8H30V10H28zM34,8H36V10H34zM36,8H38V10H36zM40,8H42V10H40zM42,8H44V10H42zM46,8H48V10H46zM48,8H50V10H48zM52,8H54V10H52zM54,8H56V10H54zM56,8H58V10H56zM58,8H60V10H58zM60,8H62V10H60zM62,8H64V10H62zM64,8H66V10H64zM8,10H10V12H8zM20,10H22V12H20zM24,10H26V12H24zM28,10H30V12H28zM34,10H36V12H34zM36,10H38V12H36zM38,10H40V12H38zM40,10H42V12H40zM46,10H48V12H46zM52,10H54V12H52zM64,10H66V12H64zM8,12H10V14H8zM12,12H14V14H12zM14,12H16V14H14zM16,12H18V14H16zM20,12H22V14H20zM28,12H30V14H28zM30,12H32V14H30zM32,12H34V14H32zM38,12H40V14H38zM40,12H42V14H40zM42,12H44V14H42zM52,12H54V14H52zM56,12H58V14H56zM58,12H60V14H58zM60,12H62V14H60zM64,12H66V14H64zM8,14H10V16H8zM12,14H14V16H12zM14,14H16V16H14zM16,14H18V16H16zM20,14H22V16H20zM28,14H30V16H28zM30,14H32V16H30zM34,14H36V16H34zM36,14H38V16H36zM38,14H40V16H38zM40,14H42V16H40zM44,14H46V16H44zM52,14H54V16H52zM56,14H58V16H56zM58,14H60V16H58zM60,14H62V16H60zM64,14H66V16H64zM8,16H10V18H8zM12,16H14V18H12zM14,16H16V18H14zM16,16H18V18H16zM20,16H22V18H20zM32,16H34V18H32zM36,16H38V18H36zM38,16H40V18H38zM40,16H42V18H40zM42,16H44V18H42zM44,16H46V18H44zM52,16H54V18H52zM56,16H58V18H56zM58,16H60V18H58zM60,16H62V18H60zM64,16H66V18H64zM8,18H10V20H8zM20,18H22V20H20zM24,18H26V20H24zM26,18H28V20H26zM32,18H34V20H32zM34,18H36V20H34zM38,18H40V20H38zM40,18H42V20H40zM42,18H44V20H42zM46,18H48V20H46zM52,18H54V20H52zM64,18H66V20H64zM8,20H10V22H8zM10,20H12V22H10zM12,20H14V22H12zM14,20H16V22H14zM16,20H18V22H16zM18,20H20V22H18zM20,20H22V22H20zM24,20H26V22H24zM28,20H30V22H28zM32,20H34V22H32zM36,20H38V22H36zM40,20H42V22H40zM44,20H46V22H44zM48,20H50V22H48zM52,20H54V22H52zM54,20H56V22H54zM56,20H58V22H56zM58,20H60V22H58zM60,20H62V22H60zM62,20H64V22H62zM64,20H66V22H64zM24,22H26V24H24zM28,22H30V24H28zM30,22H32V24H30zM46,22H48V24H46zM48,22H50V24H48zM16,24H18V26H16zM18,24H20V26H18zM20,24H22V26H20zM22,24H24V26H22zM26,24H28V26H26zM32,24H34V26H32zM36,24H38V26H36zM40,24H42V26H40zM48,24H50V26H48zM52,24H54V26H52zM54,24H56V26H54zM62,24H64V26H62zM10,26H12V28H10zM22,26H24V28H22zM30,26H32V28H30zM32,26H34V28H32zM34,26H36V28H34zM40,26H42V28H40zM44,26H46V28H44zM46,26H48V28H46zM52,26H54V28H52zM54,26H56V28H54zM56,26H58V28H56zM62,26H64V28H62zM64,26H66V28H64zM12,28H14V30H12zM16,28H18V30H16zM18,28H20V30H18zM20,28H22V30H20zM24,28H26V30H24zM26,28H28V30H26zM32,28H34V30H32zM38,28H40V30H38zM40,28H42V30H40zM42,28H44V30H42zM44,28H46V30H44zM46,28H48V30H46zM50,28H52V30H50zM54,28H56V30H54zM56,28H58V30H56zM58,28H60V30H58zM60,28H62V30H60zM64,28H66V30H64zM10,30H12V32H10zM14,30H16V32H14zM16,30H18V32H16zM18,30H20V32H18zM26,30H28V32H26zM30,30H32V32H30zM36,30H38V32H36zM42,30H44V32H42zM44,30H46V32H44zM46,30H48V32H46zM48,30H50V32H48zM50,30H52V32H50zM54,30H56V32H54zM58,30H60V32H58zM62,30H64V32H62zM64,30H66V32H64zM10,32H12V34H10zM14,32H16V34H14zM20,32H22V34H20zM24,32H26V34H24zM26,32H28V34H26zM30,32H32V34H30zM32,32H34V34H32zM34,32H36V34H34zM38,32H40V34H38zM42,32H44V34H42zM48,32H50V34H48zM54,32H56V34H54zM64,32H66V34H64zM16,34H18V36H16zM22,34H24V36H22zM30,34H32V36H30zM32,34H34V36H32zM34,34H36V36H34zM36,34H38V36H36zM44,34H46V36H44zM52,34H54V36H52zM56,34H58V36H56zM60,34H62V36H60zM64,34H66V36H64zM12,36H14V38H12zM20,36H22V38H20zM24,36H26V38H24zM26,36H28V38H26zM30,36H32V38H30zM36,36H38V38H36zM38,36H40V38H38zM42,36H44V38H42zM44,36H46V38H44zM50,36H52V38H50zM52,36H54V38H52zM56,36H58V38H56zM64,36H66V38H64zM10,38H12V40H10zM12,38H14V40H12zM16,38H18V40H16zM18,38H20V40H18zM22,38H24V40H22zM30,38H32V40H30zM32,38H34V40H32zM34,38H36V40H34zM36,38H38V40H36zM38,38H40V40H38zM40,38H42V40H40zM42,38H44V40H42zM44,38H46V40H44zM46,38H48V40H46zM52,38H54V40H52zM54,38H56V40H54zM58,38H60V40H58zM62,38H64V40H62zM10,40H12V42H10zM12,40H14V42H12zM16,40H18V42H16zM20,40H22V42H20zM22,40H24V42H22zM24,40H26V42H24zM28,40H30V42H28zM32,40H34V42H32zM38,40H40V42H38zM42,40H44V42H42zM46,40H48V42H46zM48,40H50V42H48zM50,40H52V42H50zM8,42H10V44H8zM10,42H12V44H10zM14,42H16V44H14zM22,42H24V44H22zM26,42H28V44H26zM28,42H30V44H28zM30,42H32V44H30zM34,42H36V44H34zM40,42H42V44H40zM44,42H46V44H44zM46,42H48V44H46zM48,42H50V44H48zM52,42H54V44H52zM54,42H56V44H54zM56,42H58V44H56zM58,42H60V44H58zM64,42H66V44H64zM18,44H20V46H18zM20,44H22V46H20zM22,44H24V46H22zM30,44H32V46H30zM32,44H34V46H32zM34,44H36V46H34zM36,44H38V46H36zM42,44H44V46H42zM54,44H56V46H54zM56,44H58V46H56zM58,44H60V46H58zM64,44H66V46H64zM16,46H18V48H16zM26,46H28V48H26zM30,46H32V48H30zM36,46H38V48H36zM38,46H40V48H38zM40,46H42V48H40zM48,46H50V48H48zM56,46H58V48H56zM58,46H60V48H58zM64,46H66V48H64zM8,48H10V50H8zM10,48H12V50H10zM14,48H16V50H14zM16,48H18V50H16zM20,48H22V50H20zM28,48H30V50H28zM30,48H32V50H30zM32,48H34V50H32zM34,48H36V50H34zM38,48H40V50H38zM40,48H42V50H40zM44,48H46V50H44zM46,48H48V50H46zM48,48H50V50H48zM50,48H52V50H50zM52,48H54V50H52zM54,48H56V50H54zM56,48H58V50H56zM62,48H64V50H62zM24,50H26V52H24zM32,50H34V52H32zM34,50H36V52H34zM38,50H40V52H38zM42,50H44V52H42zM44,50H46V52H44zM46,50H48V52H46zM48,50H50V52H48zM56,50H58V52H56zM60,50H62V52H60zM64,50H66V52H64zM8,52H10V54H8zM10,52H12V54H10zM12,52H14V54H12zM14,52H16V54H14zM16,52H18V54H16zM18,52H20V54H18zM20,52H22V54H20zM24,52H26V54H24zM26,52H28V54H26zM30,52H32V54H30zM34,52H36V54H34zM36,52H38V54H36zM38,52H40V54H38zM40,52H42V54H40zM46,52H48V54H46zM48,52H50V54H48zM52,52H54V54H52zM56,52H58V54H56zM64,52H66V54H64zM8,54H10V56H8zM20,54H22V56H20zM24,54H26V56H24zM26,54H28V56H26zM28,54H30V56H28zM30,54H32V56H30zM42,54H44V56H42zM44,54H46V56H44zM46,54H48V56H46zM48,54H50V56H48zM56,54H58V56H56zM58,54H60V56H58zM8,56H10V58H8zM12,56H14V58H12zM14,56H16V58H14zM16,56H18V58H16zM20,56H22V58H20zM24,56H26V58H24zM26,56H28V58H26zM28,56H30V58H28zM32,56H34V58H32zM44,56H46V58H44zM46,56H48V58H46zM48,56H50V58H48zM50,56H52V58H50zM52,56H54V58H52zM54,56H56V58H54zM56,56H58V58H56zM62,56H64V58H62zM64,56H66V58H64zM8,58H10V60H8zM12,58H14V60H12zM14,58H16V60H14zM16,58H18V60H16zM20,58H22V60H20zM28,58H30V60H28zM32,58H34V60H32zM38,58H40V60H38zM40,58H42V60H40zM42,58H44V60H42zM44,58H46V60H44zM54,58H56V60H54zM58,58H60V60H58zM60,58H62V60H60zM62,58H64V60H62zM8,60H10V62H8zM12,60H14V62H12zM14,60H16V62H14zM16,60H18V62H16zM20,60H22V62H20zM26,60H28V62H26zM30,60H32V62H30zM36,60H38V62H36zM38,60H40V62H38zM44,60H46V62H44zM46,60H48V62H46zM48,60H50V62H48zM50,60H52V62H50zM58,60H60V62H58zM60,60H62V62H60zM62,60H64V62H62zM64,60H66V62H64zM8,62H10V64H8zM20,62H22V64H20zM28,62H30V64H28zM34,62H36V64H34zM42,62H44V64H42zM48,62H50V64H48zM54,62H56V64H54zM62,62H64V64H62zM64,62H66V64H64zM8,64H10V66H8zM10,64H12V66H10zM12,64H14V66H12zM14,64H16V66H14zM16,64H18V66H16zM18,64H20V66H18zM20,64H22V66H20zM32,64H34V66H32zM34,64H36V66H34zM36,64H38V66H36zM38,64H40V66H38zM44,64H46V66H44zM48,64H50V66H48zM52,64H54V66H52zM56,64H58V66H56zM58,64H60V66H58zM62,64H64V66H62z" id="qr-path" fill="#000000" fill-opacity="1" fill-rule="nonzero" stroke="none" /></svg>