<?xml version='1.0' encoding='UTF-8'?>
<svg width="66mm" height="66mm" version="1.1" viewBox="0 0 66 66" xmlns="http://www.w3.org/2000/svg"><path d="M8,8H10V10H8zM10,8H12V10H10zM12,8H14V10H12zM14,8H16V10H14zM16,8H18V10H16zM18,8H20V10H18zM20,8H22V10H20zM24,8H26V10H24zM28,8H30V10H28zM36,8H38V10H36zM44,8H46V10H44zM46,8H48V10H46zM48,8H50V10H48zM50,8H52V10H50zM52,8H54V10H52zM54,8H56V10H54zM56,8H58V10H56zM8,10H10V12H8zM20,10H22V12H20zM24,10H26V12H24zM28,10H30V12H28zM32,10H34V12H32zM44,10H46V12H44zM56,10H58V12H56zM8,12H10V14H8zM12,12H14V14H12zM14,12H16V14H14zM16,12H18V14H16zM20,12H22V14H20zM24,12H26V14H24zM26,12H28V14H26zM28,12H30V14H28zM30,12H32V14H30zM34,12H36V14H34zM36,12H38V14H36zM40,12H42V14H40zM44,12H46V14H44zM48,12H50V14H48zM50,12H52V14H50zM52,12H54V14H52zM56,12H58V14H56zM8,14H10V16H8zM12,14H14V16H12zM14,14H16V16H14zM16,14H18V16H16zM20,14H22V16H20zM30,14H32V16H30zM34,14H36V16H34zM40,14H42V16H40zM44,14H46V16H44zM48,14H50V16H48zM50,14H52V16H50zM52,14H54V16H52zM56,14H58V16H56zM8,16H10V18H8zM12,16H14V18H12zM14,16H16V18H14zM16,16H18V18H16zM20,16H22V18H20zM24,16H26V18H24zM34,16H36V18H34zM40,16H42V18H40zM44,16H46V18H44zM48,16H50V18H48zM50,16H52V18H50zM52,16H54V18H52zM56,16H58V18H56zM8,18H10V20H8zM20,18H22V20H20zM26,18H28V20H26zM28,18H30V20H28zM30,18H32V20H30zM32,18H34V20H32zM44,18H46V20H44zM56,18H58V20H56zM8,20H10V22H8zM10,20H12V22H10zM12,20H14V22H12zM14,20H16V22H14zM16,20H18V22H16zM18,20H20V22H18zM20,20H22V22H20zM24,20H26V22H24zM28,20H30V22H28zM32,20H34V22H32zM36,20H38V22H36zM40,20H42V22H40zM44,20H46V22H44zM46,20H48V22H46zM48,20H50V22H48zM50,20H52V22H50zM52,20H54V22H52zM54,20H56V22H54zM56,20H58V22H56zM26,22H28V24H26zM28,22H30V24H28zM30,22H32V24H30zM34,22H36V24H34zM38,22H40V24H38zM40,22H42V24H40zM8,24H10V26H8zM14,24H16V26H14zM16,24H18V26H16zM18,24H20V26H18zM20,24H22V26H20zM22,24H24V26H22zM24,24H26V26H24zM28,24H30V26H28zM30,24H32V26H30zM32,24H34V26H32zM36,24H38V26H36zM40,24H42V26H40zM42,24H44V26H42zM48,24H50V26H48zM52,24H54V26H52zM54,24H56V26H54zM56,24H58V26H56zM8,26H10V28H8zM10,26H12V28H10zM12,26H14V28H12zM16,26H18V28H16zM22,26H24V28H22zM30,26H32V28H30zM38,26H40V28H38zM42,26H44V28H42zM46,26H48V28H46zM48,26H50V28H48zM50,26H52V28H50zM52,26H54V28H52zM54,26H56V28H54zM10,28H12V30H10zM14,28H16V30H14zM16,28H18V30H16zM18,28H20V30H18zM20,28H22V30H20zM22,28H24V30H22zM24,28H26V30H24zM28,28H30V30H28zM30,28H32V30H30zM34,28H36V30H34zM36,28H38V30H36zM38,28H40V30H38zM44,28H46V30H44zM46,28H48V30H46zM50,28H52V30H50zM56,28H58V30H56zM14,30H16V32H14zM18,30H20V32H18zM24,30H26V32H24zM28,30H30V32H28zM32,30H34V32H32zM36,30H38V32H36zM46,30H48V32H46zM50,30H52V32H50zM52,30H54V32H52zM54,30H56V32H54zM56,30H58V32H56zM10,32H12V34H10zM20,32H22V34H20zM28,32H30V34H28zM30,32H32V34H30zM32,32H34V34H32zM36,32H38V34H36zM40,32H42V34H40zM44,32H46V34H44zM56,32H58V34H56zM8,34H10V36H8zM24,34H26V36H24zM28,34H30V36H28zM32,34H34V36H32zM36,34H38V36H36zM38,34H40V36H38zM40,34H42V36H40zM42,34H44V36H42zM48,34H50V36H48zM54,34H56V36H54zM8,36H10V38H8zM10,36H12V38H10zM20,36H22V38H20zM22,36H24V38H22zM24,36H26V38H24zM26,36H28V38H26zM28,36H30V38H28zM36,36H38V38H36zM38,36H40V38H38zM42,36H44V38H42zM44,36H46V38H44zM48,36H50V38H48zM50,36H52V38H50zM52,36H54V38H52zM54,36H56V38H54zM56,36H58V38H56zM8,38H10V40H8zM12,38H14V40H12zM14,38H16V40H14zM16,38H18V40H16zM22,38H24V40H22zM26,38H28V40H26zM28,38H30V40H28zM30,38H32V40H30zM36,38H38V40H36zM38,38H40V40H38zM42,38H44V40H42zM46,38H48V40H46zM50,38H52V40H50zM52,38H54V40H52zM56,38H58V40H56zM8,40H10V42H8zM14,40H16V42H14zM18,40H20V42H18zM20,40H22V42H20zM22,40H24V42H22zM24,40H26V42H24zM28,40H30V42H28zM32,40H34V42H32zM34,40H36V42H34zM40,40H42V42H40zM42,40H44V42H42zM44,40H46V42H44zM46,40H48V42H46zM48,40H50V42H48zM52,40H54V42H52zM54,40H56V42H54zM24,42H26V44H24zM26,42H28V44H26zM32,42H34V44H32zM40,42H42V44H40zM48,42H50V44H48zM52,42H54V44H52zM54,42H56V44H54zM8,44H10V46H8zM10,44H12V46H10zM12,44H14V46H12zM14,44H16V46H14zM16,44H18V46H16zM18,44H20V46H18zM20,44H22V46H20zM24,44H26V46H24zM26,44H28V46H26zM30,44H32V46H30zM32,44H34V46H32zM36,44H38V46H36zM40,44H42V46H40zM44,44H46V46H44zM48,44H50V46H48zM56,44H58V46H56zM8,46H10V48H8zM20,46H22V48H20zM24,46H26V48H24zM26,46H28V48H26zM34,46H36V48H34zM36,46H38V48H36zM38,46H40V48H38zM40,46H42V48H40zM48,46H50V48H48zM8,48H10V50H8zM12,48H14V50H12zM14,48H16V50H14zM16,48H18V50H16zM20,48H22V50H20zM24,48H26V50H24zM26,48H28V50H26zM28,48H30V50H28zM32,48H34V50H32zM36,48H38V50H36zM38,48H40V50H38zM40,48H42V50H40zM42,48H44V50H42zM44,48H46V50H44zM46,48H48V50H46zM48,48H50V50H48zM8,50H10V52H8zM12,50H14V52H12zM14,50H16V52H14zM16,50H18V52H16zM20,50H22V52H20zM24,50H26V52H24zM26,50H28V52H26zM30,50H32V52H30zM36,50H38V52H36zM44,50H46V52H44zM54,50H56V52H54zM56,50H58V52H56zM8,52H10V54H8zM12,52H14V54H12zM14,52H16V54H14zM16,52H18V54H16zM20,52H22V54H20zM26,52H28V54H26zM28,52H30V54H28zM30,52H32V54H30zM32,52H34V54H32zM36,52H38V54H36zM38,52H40V54H38zM42,52H44V54H42zM48,52H50V54H48zM50,52H52V54H50zM52,52H54V54H52zM54,52H56V54H54zM56,52H58V54H56zM8,54H10V56H8zM20,54H22V56H20zM26,54H28V56H26zM36,54H38V56H36zM46,54H48V56H46zM48,54H50V56H48zM52,54H54V56H52zM54,54H56V56H54zM56,54H58V56H56zM8,56H10V58H8zM10,56H12V58H10zM12,56H14V58H12zM14,56H16V58H14zM16,56H18V58H16zM18,56H20V58H18zM20,56H22V58H20zM24,56H26V58H24zM32,56H34V58H32zM40,56H42V58H40zM42,56H44V58H42zM50,56H52V58H50zM56,56H58V58H56z" id="qr-path" fill="#000000" fill-opacity="1" fill-rule="nonzero" stroke="none" /></svg>